<?xml version="1.0" encoding="UTF-8"?> <svg xmlns="http://www.w3.org/2000/svg" width="648" height="585" viewBox="0 0 648 585" fill="none"><path d="M608.34 301.987C608.34 450.056 488.306 570.089 340.238 570.089C276.01 570.089 217.081 547.52 170.909 509.86C168.182 507.636 164.062 508.061 161.51 510.484C158.587 513.26 158.594 517.898 161.714 520.45C210.345 560.238 272.504 584.108 340.238 584.108C496.048 584.108 622.358 457.798 622.358 301.987C622.358 146.177 496.048 19.8672 340.238 19.8672C184.427 19.8672 58.1174 146.177 58.1174 301.987C58.1174 328.886 61.8819 354.905 68.9126 379.547C70.1399 383.849 75.0777 385.781 78.9706 383.578C81.8496 381.949 83.1987 378.54 82.2953 375.358C75.6803 352.054 72.1358 327.446 72.1358 301.987C72.1358 153.919 192.169 33.8856 340.238 33.8856C488.306 33.8856 608.34 153.919 608.34 301.987Z" fill="#CCCCFF"></path><path d="M309.132 95.9055L306.761 61.246L311.879 60.896L326.14 78.056L323.581 78.231L335.14 59.3052L340.258 58.9552L342.628 93.6146L337.185 93.9869L335.257 65.7941L337.342 66.2124L325.491 84.9712L324.933 85.0094L310.917 68.0196L312.693 67.3372L314.621 95.53L309.132 95.9055Z" fill="#D89AAC"></path><path d="M368.473 94.659L370.852 79.1725L361.995 58.5159L368.125 59.4576L375.184 76.158L373.018 75.8252L384.718 62.0065L390.848 62.9482L376.245 80.0009L373.866 95.4874L368.473 94.659Z" fill="#D89AAC"></path><path d="M433.843 113.429C431.899 112.45 430.277 111.179 428.974 109.618C427.686 108.03 426.781 106.303 426.258 104.438C425.736 102.574 425.616 100.669 425.9 98.7231L430.946 99.072C430.73 101.365 431.086 103.389 432.012 105.144C432.938 106.898 434.345 108.251 436.233 109.202C437.343 109.762 438.399 110.085 439.4 110.171C440.415 110.23 441.305 110.052 442.071 109.637C442.865 109.236 443.471 108.62 443.891 107.787C444.464 106.648 444.6 105.585 444.297 104.597C443.994 103.609 443.316 102.606 442.262 101.588L437.355 96.8184C435.386 94.9216 434.162 92.9298 433.682 90.8429C433.216 88.7282 433.486 86.6714 434.493 84.6725C435.374 82.9234 436.574 81.6132 438.092 80.7419C439.624 79.8429 441.328 79.3962 443.205 79.4019C445.11 79.4216 447.034 79.921 448.977 80.9001C450.838 81.8372 452.363 83.0236 453.555 84.4592C454.76 85.867 455.617 87.4129 456.126 89.0967C456.663 90.7944 456.804 92.5188 456.549 94.2698L451.565 94.0044C451.78 92.0587 451.458 90.3129 450.601 88.7671C449.771 87.2352 448.51 86.0427 446.816 85.1895C445.789 84.672 444.796 84.3979 443.837 84.3672C442.891 84.3087 442.029 84.5007 441.249 84.9432C440.511 85.372 439.925 86.0167 439.491 86.8773C438.988 87.8768 438.86 88.9261 439.106 90.0252C439.353 91.1243 440.031 92.1968 441.14 93.2429L445.694 97.6778C447.787 99.6723 449.102 101.692 449.638 103.738C450.188 105.755 449.938 107.805 448.889 109.887C448.022 111.609 446.795 112.905 445.207 113.776C443.647 114.661 441.88 115.094 439.906 115.074C437.946 115.026 435.925 114.478 433.843 113.429Z" fill="#D89AAC"></path><path d="M464.802 130.366L482.828 106.581L475.469 101.004L478.426 97.1022L497.38 111.467L494.423 115.369L487.176 109.877L469.15 133.662L464.802 130.366Z" fill="#D89AAC"></path><path d="M498.892 160.736C497.243 158.833 496.047 156.764 495.303 154.529C494.58 152.317 494.289 150.059 494.432 147.756C494.595 145.475 495.194 143.27 496.228 141.14C497.282 139.034 498.784 137.136 500.734 135.446C502.684 133.757 504.777 132.54 507.012 131.796C509.291 131.056 511.559 130.777 513.815 130.961C516.096 131.124 518.277 131.743 520.36 132.817C522.467 133.872 524.344 135.35 525.993 137.253C527.663 139.18 528.859 141.249 529.582 143.46C530.349 145.675 530.651 147.923 530.488 150.203C530.346 152.507 529.747 154.712 528.693 156.818C527.638 158.925 526.136 160.823 524.186 162.512C522.236 164.202 520.133 165.407 517.878 166.127C515.643 166.871 513.385 167.161 511.105 166.998C508.825 166.835 506.631 166.226 504.525 165.172C502.419 164.118 500.541 162.639 498.892 160.736ZM502.698 157.438C503.879 158.801 505.205 159.832 506.675 160.532C508.166 161.256 509.713 161.664 511.315 161.757C512.94 161.829 514.544 161.591 516.126 161.043C517.731 160.475 519.227 159.59 520.613 158.389C522 157.188 523.077 155.843 523.844 154.356C524.612 152.868 525.075 151.314 525.235 149.695C525.395 148.075 525.223 146.476 524.719 144.898C524.235 143.342 523.403 141.883 522.222 140.521C521.042 139.158 519.706 138.115 518.215 137.391C516.744 136.691 515.196 136.305 513.571 136.232C511.945 136.16 510.341 136.398 508.759 136.946C507.198 137.517 505.724 138.404 504.338 139.605C502.951 140.806 501.853 142.149 501.041 143.633C500.274 145.121 499.81 146.675 499.65 148.294C499.513 149.893 499.697 151.482 500.201 153.061C500.705 154.64 501.538 156.099 502.698 157.438Z" fill="#D89AAC"></path><path d="M520.811 186.608L551.398 170.135L557.39 181.261C558.495 183.314 559.085 185.326 559.159 187.299C559.26 189.257 558.821 191.065 557.842 192.722C556.906 194.392 555.438 195.765 553.44 196.841C551.333 197.976 549.239 198.415 547.158 198.159C545.093 197.929 543.239 197.109 541.596 195.699L533.083 209.394L530.12 203.892L539.417 189.193L539.272 193.349L534.916 185.261L523.42 191.452L520.811 186.608ZM539.227 182.939L542.654 189.303C543.258 190.425 544.001 191.279 544.881 191.864C545.761 192.45 546.702 192.755 547.704 192.78C548.749 192.818 549.805 192.549 550.872 191.974C551.94 191.399 552.731 190.673 553.247 189.795C553.805 188.929 554.068 187.976 554.036 186.933C554.032 185.876 553.728 184.787 553.123 183.665L549.696 177.301L539.227 182.939Z" fill="#D89AAC"></path><path d="M542.53 231.565L557.518 227L572.298 210.067L574.105 216L562.112 229.598L561.473 227.501L578.997 232.058L580.804 237.991L559.108 232.219L544.12 236.785L542.53 231.565Z" fill="#D89AAC"></path><path d="M554.79 287.106L589.521 287.927L589.175 302.565C589.124 304.74 588.691 306.611 587.876 308.178C587.093 309.745 585.977 310.932 584.527 311.737C583.109 312.543 581.436 312.924 579.509 312.878C577.831 312.838 576.303 312.367 574.925 311.464C573.577 310.592 572.521 309.246 571.755 307.424L574.086 307.479C573.427 309.049 572.604 310.32 571.617 311.292C570.661 312.265 569.588 312.955 568.396 313.362C567.204 313.8 565.956 314.004 564.65 313.973C561.387 313.896 558.848 312.763 557.034 310.574C555.22 308.417 554.356 305.489 554.443 301.791L554.79 287.106ZM559.555 292.723L559.328 302.326C559.285 304.16 559.748 305.632 560.717 306.743C561.716 307.855 563.056 308.431 564.734 308.471C566.443 308.511 567.808 307.999 568.828 306.935C569.879 305.871 570.427 304.423 570.47 302.589L570.697 292.986L559.555 292.723ZM575.545 293.1L575.326 302.377C575.291 303.869 575.682 305.076 576.5 305.997C577.349 306.919 578.473 307.396 579.871 307.429C581.27 307.462 582.368 307.037 583.166 306.154C583.965 305.271 584.382 304.084 584.417 302.592L584.636 293.315L575.545 293.1Z" fill="#676767"></path><path d="M549.062 346.059C549.684 343.619 550.701 341.456 552.112 339.57C553.516 337.714 555.204 336.188 557.178 334.99C559.144 333.823 561.296 333.057 563.635 332.691C565.967 332.355 568.383 332.506 570.883 333.143C573.383 333.781 575.576 334.805 577.462 336.216C579.371 337.665 580.893 339.369 582.03 341.327C583.197 343.293 583.934 345.438 584.239 347.761C584.575 350.093 584.432 352.479 583.81 354.919C583.18 357.389 582.164 359.552 580.76 361.408C579.379 363.301 577.706 364.831 575.74 365.998C573.766 367.196 571.614 367.962 569.282 368.298C566.951 368.634 564.535 368.483 562.035 367.846C559.534 367.208 557.345 366.169 555.467 364.728C553.581 363.316 552.055 361.628 550.887 359.662C549.72 357.696 548.969 355.547 548.633 353.216C548.297 350.885 548.44 348.499 549.062 346.059ZM553.942 347.303C553.497 349.05 553.406 350.728 553.67 352.335C553.926 353.972 554.473 355.475 555.312 356.844C556.18 358.22 557.29 359.402 558.643 360.388C560.025 361.382 561.605 362.106 563.383 362.559C565.16 363.012 566.879 363.13 568.538 362.911C570.198 362.693 571.739 362.187 573.16 361.395C574.581 360.602 575.796 359.548 576.805 358.234C577.806 356.949 578.53 355.433 578.975 353.686C579.421 351.939 579.515 350.246 579.259 348.609C578.995 347.002 578.429 345.51 577.561 344.134C576.693 342.757 575.582 341.576 574.23 340.589C572.87 339.633 571.301 338.928 569.523 338.475C567.746 338.022 566.016 337.886 564.334 338.066C562.674 338.285 561.134 338.79 559.713 339.583C558.321 340.383 557.121 341.441 556.112 342.755C555.104 344.07 554.38 345.586 553.942 347.303Z" fill="#676767"></path><path d="M533.981 390.007C535.167 387.716 536.708 385.923 538.603 384.628C540.484 383.361 542.53 382.653 544.743 382.503C546.942 382.381 549.118 382.877 551.271 383.992L571.44 394.431L568.91 399.317L548.949 388.986C547.596 388.286 546.245 387.954 544.896 387.991C543.533 388.055 542.297 388.448 541.188 389.169C540.065 389.918 539.154 390.969 538.454 392.322C537.739 393.703 537.407 395.054 537.458 396.375C537.495 397.724 537.888 398.96 538.637 400.083C539.372 401.234 540.416 402.159 541.768 402.859L561.73 413.191L559.222 418.036L539.054 407.597C536.9 406.483 535.238 404.993 534.069 403.127C532.899 401.261 532.296 399.181 532.258 396.886C532.206 394.619 532.781 392.326 533.981 390.007Z" fill="#676767"></path><path d="M515.612 422.418L539.065 440.874L544.775 433.618L548.623 436.646L533.916 455.335L530.068 452.307L535.691 445.161L512.238 426.706L515.612 422.418Z" fill="#676767"></path><path d="M496.405 445.523L520.29 470.75L516.295 474.533L492.409 449.306L496.405 445.523Z" fill="#676767"></path><path d="M465.421 471.146C467.532 469.773 469.745 468.871 472.061 468.44C474.351 468.026 476.627 468.048 478.889 468.505C481.126 468.978 483.228 469.873 485.197 471.189C487.139 472.521 488.814 474.269 490.221 476.432C491.627 478.595 492.546 480.834 492.977 483.15C493.399 485.509 493.364 487.793 492.874 490.004C492.4 492.24 491.488 494.317 490.139 496.233C488.806 498.175 487.084 499.833 484.974 501.206C482.837 502.596 480.623 503.498 478.334 503.912C476.035 504.369 473.767 504.36 471.531 503.887C469.268 503.43 467.166 502.535 465.223 501.203C463.281 499.87 461.606 498.122 460.2 495.959C458.793 493.796 457.887 491.548 457.482 489.216C457.051 486.9 457.073 484.624 457.546 482.387C458.02 480.151 458.923 478.061 460.256 476.119C461.588 474.177 463.31 472.519 465.421 471.146ZM468.167 475.368C466.656 476.351 465.452 477.523 464.557 478.884C463.636 480.262 463.021 481.738 462.71 483.312C462.416 484.913 462.432 486.534 462.758 488.176C463.101 489.844 463.773 491.447 464.773 492.984C465.773 494.522 466.958 495.773 468.326 496.737C469.695 497.701 471.171 498.373 472.753 498.753C474.335 499.133 475.943 499.181 477.576 498.898C479.182 498.631 480.742 498.007 482.253 497.023C483.765 496.04 484.981 494.86 485.902 493.482C486.797 492.121 487.391 490.64 487.685 489.04C487.979 487.439 487.963 485.818 487.637 484.176C487.284 482.551 486.608 480.97 485.608 479.432C484.608 477.895 483.428 476.622 482.068 475.615C480.7 474.651 479.224 473.979 477.642 473.599C476.077 473.245 474.477 473.21 472.844 473.493C471.212 473.777 469.652 474.401 468.167 475.368ZM456.128 472.852L475.531 481.815L470.606 485.018L451.164 476.081L456.128 472.852Z" fill="#676767"></path><path d="M424.828 493.206C427.253 492.323 429.6 492.046 431.872 492.377C434.113 492.718 436.099 493.582 437.829 494.97C439.53 496.369 440.796 498.207 441.626 500.486L449.401 521.823L444.231 523.707L436.536 502.589C436.014 501.157 435.244 499.999 434.227 499.112C433.18 498.236 432.004 497.689 430.7 497.469C429.366 497.26 427.984 497.417 426.553 497.938C425.092 498.47 423.933 499.24 423.076 500.247C422.19 501.265 421.642 502.441 421.433 503.774C421.195 505.118 421.337 506.506 421.858 507.937L429.554 529.055L424.427 530.923L416.652 509.586C415.822 507.308 415.608 505.086 416.01 502.921C416.413 500.756 417.377 498.817 418.903 497.103C420.4 495.399 422.375 494.1 424.828 493.206Z" fill="#676767"></path><path d="M394.775 503.964L399.937 538.319L377.296 541.722L376.568 536.88L393.768 534.295L392.285 524.427L376.007 526.873L375.28 522.031L391.558 519.585L390.061 509.624L372.86 512.209L372.133 507.367L394.775 503.964Z" fill="#676767"></path><path d="M227.341 104.126C227.262 103.586 227.175 102.206 227.459 101.003C227.815 99.4991 226.748 97.8799 226.867 96.0293C226.985 94.1788 227.933 93.6005 227.933 91.4029C227.933 89.2054 229.237 88.5114 229 86.4295C228.763 84.3476 230.067 82.6127 231.608 83.0754C233.149 83.538 234.809 84.2319 237.772 84.5789C240.736 84.9259 242.277 86.5451 243.581 87.0078C244.885 87.4704 246.426 88.1644 247.137 89.4367C247.848 90.7089 248.441 92.4438 249.034 93.4848C249.508 94.3175 249.468 95.8365 249.389 96.4919M236.942 130.496C237.304 130.4 238.129 130.096 238.943 129.571M236.942 130.496C236.824 130.265 236.445 129.409 235.876 127.836C235.623 127.138 235.191 126.585 234.633 126.101M236.942 130.496C237.417 127.605 237.18 124.366 235.994 122.863C234.809 121.359 233.505 119.855 233.149 117.773C232.794 115.692 232.438 113.725 233.149 111.528C233.718 109.77 234.967 107.711 235.52 106.901M236.942 130.496C235.876 132.809 233.623 138.338 233.149 141.946M236.942 130.496C237.259 129.829 239.769 125.647 243.373 121.359M236.942 130.496C237.098 130.165 237.298 129.728 237.519 129.224M236.942 130.496C237.756 129.609 239.908 127.489 242.015 126.101M240.617 108.174C240.973 111.759 239.669 111.99 238.839 114.188C238.097 116.154 239.915 119.785 239.798 122.516M240.617 108.174C240.262 104.588 243.699 102.969 244.648 100.309C245.596 97.6485 247.255 97.4172 251.286 95.6823C255.316 93.9474 257.924 92.6751 261.125 93.7161C264.325 94.757 269.422 94.9884 271.437 96.2606C273.453 97.5329 275.231 99.8461 273.69 102.738C272.149 105.629 270.726 106.554 269.896 108.174C269.318 109.302 267.244 110.149 265.157 110.99M240.617 108.174C240.301 105.436 238.934 98.7126 235.994 93.7161M249.745 121.359C250.219 119.74 254.605 117.079 255.553 115.576C256.501 114.072 259.939 113.378 262.547 112.106C263.338 111.72 264.249 111.356 265.157 110.99M249.745 121.359C249.365 122.654 249.35 123.441 249.389 123.672M249.745 121.359C250.456 120.164 253.419 118.097 259.584 119.393C260.026 119.574 261.239 119.72 262.547 118.855C264.182 117.773 265.634 113.072 265.157 110.99M242.395 127.836C240.854 128.183 240.617 128.299 239.432 129.224C239.272 129.349 239.107 129.464 238.943 129.571M242.395 127.836C243.936 127.489 244.173 127.026 245.596 125.754C247.018 124.482 247.848 123.672 250.219 123.672C252.59 123.672 258.398 123.903 264.681 126.795M242.395 127.836C243.778 127.874 247.184 128.322 249.745 129.802M263.732 117.311C265.669 117.272 269.968 117.45 271.675 118.467C273.808 119.74 274.401 121.128 274.164 123.209C273.927 125.291 274.045 124.944 274.401 126.217C274.757 127.489 275.349 129.108 274.401 130.727C273.453 132.347 271.912 131.884 270.608 131.653C269.304 131.421 268.711 132.925 266.696 132.694C264.681 132.462 262.31 133.156 261.006 134.197C259.702 135.238 257.805 134.891 256.501 134.544C255.198 134.197 254.723 132.925 252.471 133.156C251.254 133.281 250.314 133.575 249.389 133.636M238.943 129.571C244.143 128.414 244.885 131.884 246.9 133.041C247.826 133.572 248.602 133.688 249.389 133.636M249.389 133.636C249.705 134.479 249.863 136.418 247.967 137.436C245.596 138.708 245.003 139.633 244.055 140.674C243.107 141.715 240.499 143.103 240.38 145.301C240.262 147.498 237.891 149.349 237.061 150.274C236.231 151.199 233.979 151.199 232.794 150.505C231.608 149.811 229.356 150.968 228.289 149.58C227.222 148.192 228.171 143.681 225.326 142.872C222.481 142.062 223.548 137.436 220.703 136.279C217.858 135.123 219.28 132.115 220.703 130.149C221.921 128.465 222.531 126.526 223.574 125.06M223.574 125.06C223.749 124.814 223.936 124.582 224.14 124.366C225.563 122.863 228.289 122.284 230.66 123.672C232.189 124.567 233.619 125.222 234.633 126.101M223.574 125.06C221.985 125.407 218.45 125.754 217.028 124.366C215.25 122.631 214.894 122.169 212.998 122.169C211.101 122.169 210.864 120.549 208.849 120.434C206.833 120.318 203.751 120.434 202.092 119.624C200.432 118.814 200.788 116.386 202.329 115.46C203.87 114.535 204.937 111.643 205.292 110.487C205.648 109.33 207.189 108.636 208.849 105.86C210.508 103.085 213.709 104.01 214.776 103.2C215.683 102.511 216.333 101.823 218.332 102.131M226.274 107.248C225.207 105.513 222.481 103.2 219.517 102.391C219.075 102.27 218.682 102.185 218.332 102.131M218.332 102.131C220.07 101.755 224.377 101.674 227.696 104.357C231.845 107.711 233.386 110.024 233.505 110.603M239.798 122.516C239.785 122.838 239.744 123.148 239.669 123.441C239.232 125.147 238.254 127.553 237.519 129.224M239.798 122.516C240.704 120.626 243.178 115.853 245.833 111.875C249.152 106.901 255.909 103.316 259.584 102.044M234.633 126.101C234.178 123.788 232.011 118.56 226.985 116.154C221.959 113.748 214.855 113.224 211.931 113.263M237.519 129.224C237.866 127.63 237.589 122.83 236.942 119.624" stroke="#D89AAC" stroke-width="1.86501" stroke-linecap="round" stroke-linejoin="round"></path><path d="M41.3806 494.042C54.5706 516.007 82.867 530.089 107.066 478.247C133.543 421.524 125.725 390.983 133.899 266.344C134.127 285.4 157.015 414.179 191.493 453.023C213.801 413.039 219.892 317.057 226.884 203.156C260.043 315.599 262.39 412.555 269.386 448.777C311.538 400.86 321.72 349.879 349.768 249.556M349.768 249.556C332.637 238.365 320.834 221.56 359.358 160.282M349.768 249.556C366.9 260.746 391.467 279.294 408.801 293.677C453.754 330.978 459.987 347.841 403.964 406.694C347.942 465.547 371.658 275.788 449.84 196.433" stroke="#CCCCFF" stroke-width="29.4121" stroke-linecap="round" stroke-linejoin="round"></path></svg> 